<mxfile host="app.diagrams.net" modified="2023-09-26T14:18:59.478Z" agent="Mozilla/5.0 (Macintosh; Intel Mac OS X 10_15_7) AppleWebKit/537.36 (KHTML, like Gecko) Chrome/116.0.0.0 Safari/537.36" etag="o1InKaD8BU6HN0C_1Mfj" version="21.8.2" type="github">
  <diagram name="System Architecture" id="NCu1bO3Fi99Qid76WdAc">
    <mxGraphModel dx="3056" dy="1055" grid="1" gridSize="10" guides="1" tooltips="1" connect="1" arrows="1" fold="1" page="1" pageScale="1" pageWidth="850" pageHeight="1100" math="0" shadow="0">
      <root>
        <mxCell id="0" />
        <mxCell id="1" parent="0" />
        <mxCell id="u8hDwnUdwRQBdXQ4vG1z-17" value="" style="group;" parent="1" vertex="1" connectable="0">
          <mxGeometry x="40" y="360" width="570" height="570" as="geometry" />
        </mxCell>
        <mxCell id="u8hDwnUdwRQBdXQ4vG1z-10" value="" style="rounded=0;whiteSpace=wrap;html=1;fillColor=#f8cecc;strokeColor=#b85450;" parent="u8hDwnUdwRQBdXQ4vG1z-17" vertex="1">
          <mxGeometry x="-10" width="380" height="540" as="geometry" />
        </mxCell>
        <mxCell id="u8hDwnUdwRQBdXQ4vG1z-11" value="&lt;b&gt;OSC O-DU&lt;/b&gt;" style="text;html=1;strokeColor=none;fillColor=none;align=center;verticalAlign=middle;whiteSpace=wrap;rounded=0;" parent="u8hDwnUdwRQBdXQ4vG1z-17" vertex="1">
          <mxGeometry x="-10" width="80" height="31.58" as="geometry" />
        </mxCell>
        <mxCell id="OtKHlMCOPKhoN5Rq30PM-12" value="" style="group" vertex="1" connectable="0" parent="u8hDwnUdwRQBdXQ4vG1z-17">
          <mxGeometry x="20" y="40" width="530" height="400" as="geometry" />
        </mxCell>
        <mxCell id="u8hDwnUdwRQBdXQ4vG1z-14" value="" style="rounded=0;whiteSpace=wrap;html=1;" parent="OtKHlMCOPKhoN5Rq30PM-12" vertex="1">
          <mxGeometry x="-10" width="340" height="400" as="geometry" />
        </mxCell>
        <mxCell id="OtKHlMCOPKhoN5Rq30PM-11" value="[H] O-DU HIgh" style="text;html=1;strokeColor=none;fillColor=none;align=center;verticalAlign=middle;whiteSpace=wrap;rounded=0;" vertex="1" parent="OtKHlMCOPKhoN5Rq30PM-12">
          <mxGeometry x="-10" width="90" height="30" as="geometry" />
        </mxCell>
        <mxCell id="OtKHlMCOPKhoN5Rq30PM-27" value="Slice-SCH" style="rounded=0;whiteSpace=wrap;html=1;" vertex="1" parent="OtKHlMCOPKhoN5Rq30PM-12">
          <mxGeometry x="5" y="330" width="90" height="50" as="geometry" />
        </mxCell>
        <mxCell id="OtKHlMCOPKhoN5Rq30PM-28" value="MAC" style="rounded=0;whiteSpace=wrap;html=1;" vertex="1" parent="OtKHlMCOPKhoN5Rq30PM-12">
          <mxGeometry x="115" y="330" width="90" height="50" as="geometry" />
        </mxCell>
        <mxCell id="OtKHlMCOPKhoN5Rq30PM-29" value="RLC" style="rounded=0;whiteSpace=wrap;html=1;" vertex="1" parent="OtKHlMCOPKhoN5Rq30PM-12">
          <mxGeometry x="225" y="330" width="90" height="50" as="geometry" />
        </mxCell>
        <mxCell id="OtKHlMCOPKhoN5Rq30PM-24" value="" style="group" vertex="1" connectable="0" parent="u8hDwnUdwRQBdXQ4vG1z-17">
          <mxGeometry x="-270" y="70" width="590" height="260" as="geometry" />
        </mxCell>
        <mxCell id="OtKHlMCOPKhoN5Rq30PM-22" value="" style="rounded=0;whiteSpace=wrap;html=1;container=0;fillColor=#fff2cc;strokeColor=#d6b656;" vertex="1" parent="OtKHlMCOPKhoN5Rq30PM-24">
          <mxGeometry x="310" y="5" width="280" height="245" as="geometry" />
        </mxCell>
        <mxCell id="OtKHlMCOPKhoN5Rq30PM-23" value="E2 Handler" style="text;html=1;strokeColor=none;fillColor=none;align=center;verticalAlign=middle;whiteSpace=wrap;rounded=0;container=0;" vertex="1" parent="OtKHlMCOPKhoN5Rq30PM-24">
          <mxGeometry x="310" y="5" width="70" height="30" as="geometry" />
        </mxCell>
        <mxCell id="OtKHlMCOPKhoN5Rq30PM-13" value="E2AP Interface&lt;br&gt;Manager" style="rounded=0;whiteSpace=wrap;html=1;container=0;" vertex="1" parent="OtKHlMCOPKhoN5Rq30PM-24">
          <mxGeometry x="400" y="20" width="100" height="50" as="geometry" />
        </mxCell>
        <mxCell id="OtKHlMCOPKhoN5Rq30PM-14" value="E2SM Manager" style="rounded=0;whiteSpace=wrap;html=1;container=0;" vertex="1" parent="OtKHlMCOPKhoN5Rq30PM-24">
          <mxGeometry x="400" y="100" width="100" height="50" as="geometry" />
        </mxCell>
        <mxCell id="OtKHlMCOPKhoN5Rq30PM-17" style="edgeStyle=orthogonalEdgeStyle;rounded=0;orthogonalLoop=1;jettySize=auto;html=1;entryX=0.5;entryY=0;entryDx=0;entryDy=0;endArrow=none;endFill=0;" edge="1" parent="OtKHlMCOPKhoN5Rq30PM-24" source="OtKHlMCOPKhoN5Rq30PM-13" target="OtKHlMCOPKhoN5Rq30PM-14">
          <mxGeometry relative="1" as="geometry" />
        </mxCell>
        <mxCell id="OtKHlMCOPKhoN5Rq30PM-15" value="E2SM-RC&lt;br&gt;Module" style="rounded=0;whiteSpace=wrap;html=1;container=0;" vertex="1" parent="OtKHlMCOPKhoN5Rq30PM-24">
          <mxGeometry x="330" y="190" width="100" height="50" as="geometry" />
        </mxCell>
        <mxCell id="OtKHlMCOPKhoN5Rq30PM-18" style="edgeStyle=orthogonalEdgeStyle;rounded=0;orthogonalLoop=1;jettySize=auto;html=1;endArrow=none;endFill=0;" edge="1" parent="OtKHlMCOPKhoN5Rq30PM-24" source="OtKHlMCOPKhoN5Rq30PM-14" target="OtKHlMCOPKhoN5Rq30PM-15">
          <mxGeometry relative="1" as="geometry" />
        </mxCell>
        <mxCell id="OtKHlMCOPKhoN5Rq30PM-16" value="E2SM-KPM Module" style="rounded=0;whiteSpace=wrap;html=1;container=0;" vertex="1" parent="OtKHlMCOPKhoN5Rq30PM-24">
          <mxGeometry x="470" y="190" width="100" height="50" as="geometry" />
        </mxCell>
        <mxCell id="OtKHlMCOPKhoN5Rq30PM-19" style="edgeStyle=orthogonalEdgeStyle;rounded=0;orthogonalLoop=1;jettySize=auto;html=1;endArrow=none;endFill=0;" edge="1" parent="OtKHlMCOPKhoN5Rq30PM-24" source="OtKHlMCOPKhoN5Rq30PM-14" target="OtKHlMCOPKhoN5Rq30PM-16">
          <mxGeometry relative="1" as="geometry" />
        </mxCell>
        <mxCell id="OtKHlMCOPKhoN5Rq30PM-31" value="RRM Policy" style="edgeStyle=orthogonalEdgeStyle;rounded=0;orthogonalLoop=1;jettySize=auto;html=1;" edge="1" parent="u8hDwnUdwRQBdXQ4vG1z-17" source="OtKHlMCOPKhoN5Rq30PM-15" target="OtKHlMCOPKhoN5Rq30PM-27">
          <mxGeometry x="-0.6" relative="1" as="geometry">
            <Array as="points">
              <mxPoint x="110" y="350" />
              <mxPoint x="70" y="350" />
            </Array>
            <mxPoint as="offset" />
          </mxGeometry>
        </mxCell>
        <mxCell id="OtKHlMCOPKhoN5Rq30PM-32" value="PRB" style="edgeStyle=orthogonalEdgeStyle;rounded=0;orthogonalLoop=1;jettySize=auto;html=1;entryX=0.5;entryY=1;entryDx=0;entryDy=0;" edge="1" parent="u8hDwnUdwRQBdXQ4vG1z-17" source="OtKHlMCOPKhoN5Rq30PM-28" target="OtKHlMCOPKhoN5Rq30PM-16">
          <mxGeometry x="-0.6923" relative="1" as="geometry">
            <mxPoint as="offset" />
          </mxGeometry>
        </mxCell>
        <mxCell id="OtKHlMCOPKhoN5Rq30PM-33" value="Throughput" style="edgeStyle=orthogonalEdgeStyle;rounded=0;orthogonalLoop=1;jettySize=auto;html=1;entryX=0.5;entryY=1;entryDx=0;entryDy=0;" edge="1" parent="u8hDwnUdwRQBdXQ4vG1z-17" source="OtKHlMCOPKhoN5Rq30PM-29" target="OtKHlMCOPKhoN5Rq30PM-16">
          <mxGeometry x="-0.6" relative="1" as="geometry">
            <mxPoint as="offset" />
          </mxGeometry>
        </mxCell>
        <mxCell id="OtKHlMCOPKhoN5Rq30PM-37" style="edgeStyle=orthogonalEdgeStyle;rounded=0;orthogonalLoop=1;jettySize=auto;html=1;endArrow=none;endFill=0;" edge="1" parent="u8hDwnUdwRQBdXQ4vG1z-17" source="OtKHlMCOPKhoN5Rq30PM-36" target="u8hDwnUdwRQBdXQ4vG1z-14">
          <mxGeometry relative="1" as="geometry" />
        </mxCell>
        <mxCell id="OtKHlMCOPKhoN5Rq30PM-36" value="[H] CU - Stub" style="rounded=0;whiteSpace=wrap;html=1;fillColor=#ffe6cc;strokeColor=#d79b00;" vertex="1" parent="u8hDwnUdwRQBdXQ4vG1z-17">
          <mxGeometry x="130" y="470" width="100" height="60" as="geometry" />
        </mxCell>
        <mxCell id="OtKHlMCOPKhoN5Rq30PM-1" value="" style="group" vertex="1" connectable="0" parent="1">
          <mxGeometry x="610" y="40.00333333333333" width="130" height="217.49999999999997" as="geometry" />
        </mxCell>
        <mxCell id="OtKHlMCOPKhoN5Rq30PM-2" value="" style="rounded=0;whiteSpace=wrap;html=1;fillColor=#fff2cc;strokeColor=#d6b656;" vertex="1" parent="OtKHlMCOPKhoN5Rq30PM-1">
          <mxGeometry width="120" height="200" as="geometry" />
        </mxCell>
        <mxCell id="OtKHlMCOPKhoN5Rq30PM-3" value="&lt;b&gt;OSC Near-RT RIC&lt;/b&gt;" style="text;html=1;strokeColor=none;fillColor=none;align=center;verticalAlign=middle;whiteSpace=wrap;rounded=0;" vertex="1" parent="OtKHlMCOPKhoN5Rq30PM-1">
          <mxGeometry width="120" height="36.25" as="geometry" />
        </mxCell>
        <mxCell id="OtKHlMCOPKhoN5Rq30PM-4" style="edgeStyle=orthogonalEdgeStyle;rounded=0;orthogonalLoop=1;jettySize=auto;html=1;entryX=0.5;entryY=0;entryDx=0;entryDy=0;endArrow=none;endFill=0;" edge="1" parent="OtKHlMCOPKhoN5Rq30PM-1" source="OtKHlMCOPKhoN5Rq30PM-5" target="OtKHlMCOPKhoN5Rq30PM-6">
          <mxGeometry relative="1" as="geometry" />
        </mxCell>
        <mxCell id="OtKHlMCOPKhoN5Rq30PM-5" value="KPMv2&lt;br&gt;xApp" style="rounded=0;whiteSpace=wrap;html=1;" vertex="1" parent="OtKHlMCOPKhoN5Rq30PM-1">
          <mxGeometry x="10" y="36.25" width="100" height="53.75" as="geometry" />
        </mxCell>
        <mxCell id="OtKHlMCOPKhoN5Rq30PM-6" value="[F] Near-RT RIC&lt;br&gt;Platform&lt;br&gt;(192.168.8.228)" style="rounded=0;whiteSpace=wrap;html=1;" vertex="1" parent="OtKHlMCOPKhoN5Rq30PM-1">
          <mxGeometry x="10" y="119.9928" width="100" height="60.416666666666664" as="geometry" />
        </mxCell>
        <mxCell id="OtKHlMCOPKhoN5Rq30PM-7" style="edgeStyle=orthogonalEdgeStyle;rounded=0;orthogonalLoop=1;jettySize=auto;html=1;exitX=0.5;exitY=1;exitDx=0;exitDy=0;" edge="1" parent="OtKHlMCOPKhoN5Rq30PM-1" source="OtKHlMCOPKhoN5Rq30PM-5" target="OtKHlMCOPKhoN5Rq30PM-5">
          <mxGeometry relative="1" as="geometry" />
        </mxCell>
        <mxCell id="OtKHlMCOPKhoN5Rq30PM-34" value="" style="group" vertex="1" connectable="0" parent="1">
          <mxGeometry x="125" y="30" width="410" height="290" as="geometry" />
        </mxCell>
        <mxCell id="u8hDwnUdwRQBdXQ4vG1z-1" value="" style="rounded=0;whiteSpace=wrap;html=1;fillColor=#dae8fc;strokeColor=#6c8ebf;align=left;" parent="OtKHlMCOPKhoN5Rq30PM-34" vertex="1">
          <mxGeometry width="190" height="290" as="geometry" />
        </mxCell>
        <mxCell id="u8hDwnUdwRQBdXQ4vG1z-2" value="&lt;b&gt;BubbelRAN&lt;/b&gt;" style="text;html=1;strokeColor=none;fillColor=none;align=center;verticalAlign=middle;whiteSpace=wrap;rounded=0;container=1;" parent="OtKHlMCOPKhoN5Rq30PM-34" vertex="1">
          <mxGeometry width="80" height="30" as="geometry" />
        </mxCell>
        <mxCell id="u8hDwnUdwRQBdXQ4vG1z-7" value="" style="group" parent="OtKHlMCOPKhoN5Rq30PM-34" vertex="1" connectable="0">
          <mxGeometry x="20" y="30.00333333333333" width="170" height="230" as="geometry" />
        </mxCell>
        <mxCell id="u8hDwnUdwRQBdXQ4vG1z-4" value="" style="rounded=0;whiteSpace=wrap;html=1;fillColor=#fff2cc;strokeColor=#d6b656;" parent="u8hDwnUdwRQBdXQ4vG1z-7" vertex="1">
          <mxGeometry width="150" height="230" as="geometry" />
        </mxCell>
        <mxCell id="u8hDwnUdwRQBdXQ4vG1z-5" value="&lt;b&gt;OAI FlexRIC&lt;/b&gt;" style="text;html=1;strokeColor=none;fillColor=none;align=center;verticalAlign=middle;whiteSpace=wrap;rounded=0;" parent="u8hDwnUdwRQBdXQ4vG1z-7" vertex="1">
          <mxGeometry width="80" height="36.25" as="geometry" />
        </mxCell>
        <mxCell id="u8hDwnUdwRQBdXQ4vG1z-13" style="edgeStyle=orthogonalEdgeStyle;rounded=0;orthogonalLoop=1;jettySize=auto;html=1;entryX=0.5;entryY=0;entryDx=0;entryDy=0;endArrow=none;endFill=0;" parent="u8hDwnUdwRQBdXQ4vG1z-7" source="u8hDwnUdwRQBdXQ4vG1z-6" target="u8hDwnUdwRQBdXQ4vG1z-9" edge="1">
          <mxGeometry relative="1" as="geometry" />
        </mxCell>
        <mxCell id="u8hDwnUdwRQBdXQ4vG1z-9" value="FlexRIC RIC Server" style="rounded=0;whiteSpace=wrap;html=1;" parent="u8hDwnUdwRQBdXQ4vG1z-7" vertex="1">
          <mxGeometry x="10" y="150" width="130" height="60.42" as="geometry" />
        </mxCell>
        <mxCell id="OtKHlMCOPKhoN5Rq30PM-10" value="" style="group" vertex="1" connectable="0" parent="u8hDwnUdwRQBdXQ4vG1z-7">
          <mxGeometry x="10" y="36.25" width="130" height="73.75" as="geometry" />
        </mxCell>
        <mxCell id="u8hDwnUdwRQBdXQ4vG1z-6" value="" style="rounded=0;whiteSpace=wrap;html=1;" parent="OtKHlMCOPKhoN5Rq30PM-10" vertex="1">
          <mxGeometry width="130" height="73.75" as="geometry" />
        </mxCell>
        <mxCell id="OtKHlMCOPKhoN5Rq30PM-8" value="E2SM-KPM v2.02" style="rounded=0;whiteSpace=wrap;html=1;" vertex="1" parent="OtKHlMCOPKhoN5Rq30PM-10">
          <mxGeometry x="10" y="23.74666666666667" width="110" height="40" as="geometry" />
        </mxCell>
        <mxCell id="OtKHlMCOPKhoN5Rq30PM-9" value="KPM xAPP" style="text;html=1;strokeColor=none;fillColor=none;align=center;verticalAlign=middle;whiteSpace=wrap;rounded=0;" vertex="1" parent="OtKHlMCOPKhoN5Rq30PM-10">
          <mxGeometry x="25" width="80" height="23.75" as="geometry" />
        </mxCell>
        <mxCell id="u8hDwnUdwRQBdXQ4vG1z-19" style="edgeStyle=orthogonalEdgeStyle;rounded=0;orthogonalLoop=1;jettySize=auto;html=1;exitX=0.5;exitY=1;exitDx=0;exitDy=0;" parent="OtKHlMCOPKhoN5Rq30PM-10" source="u8hDwnUdwRQBdXQ4vG1z-6" target="u8hDwnUdwRQBdXQ4vG1z-6" edge="1">
          <mxGeometry relative="1" as="geometry" />
        </mxCell>
        <mxCell id="OtKHlMCOPKhoN5Rq30PM-35" value="E2 Interface" style="edgeStyle=orthogonalEdgeStyle;rounded=0;orthogonalLoop=1;jettySize=auto;html=1;endArrow=none;endFill=0;" edge="1" parent="1" source="u8hDwnUdwRQBdXQ4vG1z-4" target="u8hDwnUdwRQBdXQ4vG1z-14">
          <mxGeometry relative="1" as="geometry">
            <mxPoint x="230" y="400" as="targetPoint" />
          </mxGeometry>
        </mxCell>
      </root>
    </mxGraphModel>
  </diagram>
</mxfile>
